<!--?xml version="1.0" standalone="no"?-->
              <svg id="sw-js-blob-svg" viewBox="0 0 100 100" xmlns="http://www.w3.org/2000/svg" version="1.1">
                    <defs> 
                        <linearGradient id="sw-gradient" x1="0" x2="1" y1="1" y2="0">
                            <stop id="stop1" stop-color="rgba(248.863, 248.863, 248.863, 1)" offset="0%"></stop>
                            <stop id="stop2" stop-color="rgba(165, 151, 129, 1)" offset="100%"></stop>
                        </linearGradient>
                    </defs>
                <path fill="url(#sw-gradient)" d="M19.1,-23.7C24.5,-18.3,28.2,-12,30.7,-4.5C33.1,3,34.2,11.7,31,18.4C27.7,25,20.1,29.6,11.6,33.4C3.1,37.2,-6.3,40.2,-13.3,37.3C-20.2,34.5,-24.8,25.7,-28.3,17.4C-31.8,9.1,-34.4,1.3,-33.7,-6.6C-33.1,-14.4,-29.2,-22.4,-23.1,-27.6C-16.9,-32.8,-8.5,-35.4,-0.8,-34.4C6.9,-33.5,13.8,-29.1,19.1,-23.7Z" width="100%" height="100%" transform="translate(50 50)" stroke-width="0" style="transition: all 0.3s ease 0s;"></path>
              </svg>